<?xml version="1.0" encoding="utf-8"?>
<!-- Generator: Adobe Illustrator 24.0.1, SVG Export Plug-In . SVG Version: 6.00 Build 0)  -->
<svg version="1.1" id="Layer_1" xmlns="http://www.w3.org/2000/svg" xmlns:xlink="http://www.w3.org/1999/xlink" x="0px" y="0px"
	 viewBox="0 0 205 43" style="enable-background:new 0 0 205 43;" xml:space="preserve">
<style type="text/css">
	.st0{fill:#1C1937;}
	.st1{fill:url(#SVGID_1_);}
	.st2{fill:url(#SVGID_2_);}
	.st3{fill:url(#SVGID_3_);}
	.st4{fill:url(#SVGID_4_);}
	.st5{fill:url(#SVGID_5_);}
	.st6{fill:url(#SVGID_6_);}
	.st7{fill:#575756;}
</style>
<g>
	<g>
		<g>
			<polygon class="st0" points="3.63,9.71 9.04,9.71 5.33,29.36 13.32,29.36 17.04,9.71 22.45,9.71 23.77,2.72 4.95,2.72 			"/>
			<path class="st0" d="M44.78,11.19c1-5.31-1.94-8.48-7.88-8.48H26.39l-5.04,26.65h8l1.52-8.04l3.61,8.04H44.5l-6.14-10.62
				C41.63,17.72,44.09,14.87,44.78,11.19z M36.44,11.59c-0.32,1.7-1.54,2.4-4.19,2.42l0.91-4.84C35.81,9.19,36.76,9.9,36.44,11.59z"
				/>
			<linearGradient id="SVGID_1_" gradientUnits="userSpaceOnUse" x1="77.7881" y1="27.9242" x2="97.6292" y2="8.0831">
				<stop  offset="0" style="stop-color:#474897"/>
				<stop  offset="0.0948" style="stop-color:#4256A2"/>
				<stop  offset="0.3274" style="stop-color:#3873B8"/>
				<stop  offset="0.5582" style="stop-color:#3088C8"/>
				<stop  offset="0.7843" style="stop-color:#2C95D2"/>
				<stop  offset="1" style="stop-color:#2A99D5"/>
			</linearGradient>
			<polygon class="st1" points="92.26,2.72 84.26,2.72 79.23,29.36 95.08,29.36 96.4,22.37 88.55,22.37 			"/>
			<linearGradient id="SVGID_2_" gradientUnits="userSpaceOnUse" x1="103.0941" y1="27.2903" x2="125.577" y2="4.8074">
				<stop  offset="0" style="stop-color:#474897"/>
				<stop  offset="0.0948" style="stop-color:#4256A2"/>
				<stop  offset="0.3274" style="stop-color:#3873B8"/>
				<stop  offset="0.5582" style="stop-color:#3088C8"/>
				<stop  offset="0.7843" style="stop-color:#2C95D2"/>
				<stop  offset="1" style="stop-color:#2A99D5"/>
			</linearGradient>
			<path class="st2" d="M117.03,1.88c-8.08,0-15.82,6.14-17.25,13.69c-1.6,8.48,3.4,14.63,11.9,14.63c8.5,0,15.82-6.15,17.43-14.63
				C130.53,8.02,125.11,1.88,117.03,1.88z M113.15,22.4c-3.59,0-5.83-2.99-5.11-6.8c0.6-3.16,4.11-5.93,7.52-5.93
				c3.41,0,5.87,2.77,5.28,5.93C120.11,19.42,116.74,22.4,113.15,22.4z"/>
			<linearGradient id="SVGID_3_" gradientUnits="userSpaceOnUse" x1="132.2686" y1="22.6697" x2="156.8207" y2="-1.8824">
				<stop  offset="0" style="stop-color:#474897"/>
				<stop  offset="0.0948" style="stop-color:#4256A2"/>
				<stop  offset="0.3274" style="stop-color:#3873B8"/>
				<stop  offset="0.5582" style="stop-color:#3088C8"/>
				<stop  offset="0.7843" style="stop-color:#2C95D2"/>
				<stop  offset="1" style="stop-color:#2A99D5"/>
			</linearGradient>
			<polygon class="st3" points="144.43,16.79 141.49,2.72 132.79,2.72 138.96,29.36 145,29.36 161.42,2.72 152.71,2.72 			"/>
			<linearGradient id="SVGID_4_" gradientUnits="userSpaceOnUse" x1="157.4165" y1="27.9074" x2="181.1516" y2="4.1723">
				<stop  offset="0" style="stop-color:#474897"/>
				<stop  offset="0.0948" style="stop-color:#4256A2"/>
				<stop  offset="0.3274" style="stop-color:#3873B8"/>
				<stop  offset="0.5582" style="stop-color:#3088C8"/>
				<stop  offset="0.7843" style="stop-color:#2C95D2"/>
				<stop  offset="1" style="stop-color:#2A99D5"/>
			</linearGradient>
			<polygon class="st4" points="158.87,29.36 174.66,29.36 175.98,22.37 168.19,22.37 168.74,19.47 176.13,19.47 177.45,12.48 
				170.06,12.48 170.58,9.71 178.37,9.71 179.69,2.72 163.91,2.72 			"/>
			<linearGradient id="SVGID_5_" gradientUnits="userSpaceOnUse" x1="180.3122" y1="29.7478" x2="203.5621" y2="6.4979">
				<stop  offset="0" style="stop-color:#474897"/>
				<stop  offset="0.0948" style="stop-color:#4256A2"/>
				<stop  offset="0.3274" style="stop-color:#3873B8"/>
				<stop  offset="0.5582" style="stop-color:#3088C8"/>
				<stop  offset="0.7843" style="stop-color:#2C95D2"/>
				<stop  offset="1" style="stop-color:#2A99D5"/>
			</linearGradient>
			<path class="st5" d="M181.33,21.94l-1.4,7.43h8l1.52-8.04l3.61,8.04h10.02l-6.14-10.62c3.26-1.03,5.73-3.88,6.42-7.55
				c1-5.31-1.94-8.48-7.88-8.48h-10.52L181.33,21.94 M195.02,11.59c-0.32,1.7-1.54,2.4-4.19,2.42l0.91-4.84
				C194.39,9.19,195.34,9.9,195.02,11.59z"/>
		</g>
		<g>
			<linearGradient id="SVGID_6_" gradientUnits="userSpaceOnUse" x1="49.5695" y1="10.7069" x2="56.6818" y2="3.5945">
				<stop  offset="0" style="stop-color:#DA1F26"/>
				<stop  offset="1" style="stop-color:#ED9022"/>
			</linearGradient>
			<path class="st6" d="M53.48,9.95l3.78,0.01l-1.5-7.3h-5.09l-1.45,7.68c0.2-0.04,0.41-0.07,0.62-0.11
				C51.03,10.04,52.25,9.95,53.48,9.95z"/>
			<path class="st0" d="M49.82,12.88c-0.34-0.06-0.68-0.12-1.02-0.19l-0.04,0.06l-3.13,16.57v0h8l1.31-6.98l0.01-0.01l1.72-9.12
				l-3.2-0.01C52.24,13.18,51.02,13.08,49.82,12.88z"/>
			<path class="st0" d="M71.82,2.65h-2.75h-9.65l3.67,7.18h0l0.08,0.15l5.44,0.02c2.27,0.02,3.93,0.46,5.15,1.21
				c0.32,0.2,0.32,0.67,0,0.86c-1.23,0.74-2.89,1.17-5.16,1.17l-5.44-0.02l-1.51,2.91l-2.89,5.56l-1.98,3.8
				c-0.01,0.02-0.02,0.03-0.04,0.05l0,0.01l-0.71,3.75v0h8l0-0.01l1.58-8.35h2.99c6.4,0,10.24-3.12,11.4-9.28
				C81.08,5.94,78.1,2.65,71.82,2.65z"/>
		</g>
	</g>
	<g>
		<path class="st7" d="M84.26,32.09l0.07,6.6h-0.85l-0.02-3.84l-2.62,4.27l-1.02-4.27l-1.46,3.84h-0.92l2.51-6.46l1.21,4.93
			L84.26,32.09z"/>
		<path class="st7" d="M91.61,37.28l-0.83,1.42h-0.97l3.77-6.46l1.66,6.46H94.3l-0.35-1.42H91.61z M92.05,36.51h1.71l-0.51-2.15
			L92.05,36.51z"/>
		<path class="st7" d="M102.79,32.67l-0.48,2.56l2.61-2.56h1.13l-3,2.81l2.33,3.23h-1.08l-2.09-2.94l-0.55,2.94h-0.9l1.14-6.03
			H102.79z"/>
		<path class="st7" d="M115.22,32.67l-0.16,0.83h-2.22l-0.29,1.56h2.22l-0.14,0.77h-2.22l-0.38,2.03h2.22l-0.16,0.83h-3.11
			l1.14-6.03H115.22z"/>
		<path class="st7" d="M133.91,32.09l0.07,6.6h-0.85l-0.02-3.84l-2.62,4.27l-1.02-4.27l-1.46,3.84h-0.92l2.51-6.46l1.21,4.93
			L133.91,32.09z"/>
		<path class="st7" d="M144.19,32.67l-0.16,0.83h-2.22l-0.29,1.56h2.22l-0.14,0.77h-2.22l-0.38,2.03h2.22l-0.16,0.83h-3.11
			l1.14-6.03H144.19z"/>
		<path class="st7" d="M155.59,32.09l0.07,6.6h-0.85l-0.02-3.84l-2.62,4.27l-1.02-4.27l-1.46,3.84h-0.92l2.51-6.46l1.21,4.93
			L155.59,32.09z"/>
		<path class="st7" d="M168.19,35.56c-0.04,0.69-0.27,1.31-0.67,1.87c-0.32,0.44-0.72,0.78-1.2,1.02c-0.48,0.24-1.01,0.36-1.57,0.36
			c-0.91,0-1.63-0.29-2.16-0.86c-0.53-0.58-0.77-1.33-0.71-2.24c0.06-0.91,0.41-1.67,1.06-2.27c0.65-0.6,1.43-0.9,2.36-0.9
			c0.93,0,1.66,0.28,2.19,0.83C168.01,33.93,168.25,34.66,168.19,35.56z M167.29,35.56c0.04-0.66-0.12-1.19-0.48-1.58
			c-0.37-0.39-0.88-0.59-1.54-0.59c-0.66,0-1.23,0.22-1.72,0.66c-0.48,0.44-0.73,1-0.78,1.66c-0.04,0.66,0.13,1.2,0.52,1.63
			c0.39,0.43,0.9,0.64,1.53,0.64c0.66,0,1.22-0.23,1.69-0.69C166.98,36.83,167.24,36.25,167.29,35.56z"/>
		<path class="st7" d="M176.09,36.15l1.35,2.54h-0.95l-1.27-2.48h-0.32l-0.47,2.48h-0.9l1.14-6.03h1.19c0.39,0,0.69,0.04,0.91,0.11
			c0.22,0.07,0.41,0.18,0.56,0.36c0.29,0.32,0.43,0.74,0.39,1.25C177.67,35.32,177.12,35.91,176.09,36.15z M175.41,33.5l-0.36,1.94
			h0.41c0.3,0,0.53-0.03,0.68-0.09c0.16-0.06,0.3-0.15,0.42-0.29c0.16-0.19,0.25-0.42,0.26-0.68c0.02-0.3-0.05-0.53-0.22-0.67
			c-0.17-0.14-0.44-0.21-0.82-0.21H175.41z"/>
		<path class="st7" d="M185.16,32.67l-1.14,6.03h-0.9l1.14-6.03H185.16z"/>
		<path class="st7" d="M194.54,32.67l-0.16,0.83h-2.22l-0.29,1.56h2.22l-0.14,0.77h-2.22l-0.38,2.03h2.22l-0.16,0.83h-3.11
			l1.14-6.03H194.54z"/>
		<path class="st7" d="M203.63,33.43l-0.64,0.57c-0.26-0.42-0.57-0.63-0.94-0.63c-0.27,0-0.49,0.08-0.68,0.25
			c-0.19,0.16-0.29,0.37-0.3,0.62c-0.01,0.2,0.04,0.37,0.15,0.51c0.06,0.07,0.14,0.14,0.25,0.23c0.11,0.09,0.25,0.18,0.42,0.29
			c0.5,0.3,0.83,0.58,0.99,0.82c0.16,0.25,0.23,0.57,0.2,0.97c-0.03,0.52-0.23,0.94-0.6,1.27c-0.36,0.32-0.82,0.48-1.37,0.48
			c-0.45,0-0.82-0.1-1.12-0.29c-0.15-0.1-0.29-0.22-0.41-0.38c-0.13-0.15-0.24-0.34-0.35-0.56l0.71-0.46
			c0.16,0.33,0.33,0.55,0.5,0.67c0.17,0.12,0.4,0.18,0.68,0.18c0.32,0,0.57-0.08,0.76-0.25c0.19-0.17,0.29-0.4,0.31-0.71
			c0.01-0.21-0.04-0.39-0.16-0.53c-0.06-0.08-0.15-0.16-0.27-0.25c-0.12-0.09-0.28-0.2-0.47-0.32c-0.44-0.27-0.74-0.52-0.9-0.77
			c-0.16-0.24-0.22-0.55-0.2-0.91c0.03-0.49,0.23-0.89,0.59-1.21c0.36-0.32,0.8-0.48,1.32-0.48c0.34,0,0.62,0.07,0.85,0.2
			C203.16,32.88,203.39,33.11,203.63,33.43z"/>
	</g>
</g>
</svg>
